
      <svg data-logo="logo" xmlns="http://www.w3.org/2000/svg" viewBox="0 0 134 43">
        <g id="logogram" transform="translate(0, 1) rotate(0) "><path d="M40.207 22.1241H33.0426C26.7844 22.1241 21.7112 27.1973 21.7112 33.4555V40.6199C31.5885 39.8876 39.4747 32.0014 40.207 22.1241Z" fill="#4A895C"/><path d="M18.7029 40.6199V33.4555C18.7029 27.1973 13.6296 22.1241 7.37148 22.1241H0.207031C0.939394 32.0014 8.8256 39.8876 18.7029 40.6199Z" fill="#4A895C"/><path d="M40.207 19.1158C39.4747 9.23851 31.5885 1.3523 21.7112 0.619934V7.78438C21.7112 14.0425 26.7844 19.1158 33.0426 19.1158H40.207Z" fill="#4A895C"/><path d="M18.7029 0.619934C8.8256 1.3523 0.939394 9.23851 0.207031 19.1158H7.37148C13.6296 19.1158 18.7029 14.0425 18.7029 7.78438V0.619934Z" fill="#4A895C"/><path d="M13.7722 20.6197C16.5524 19.2306 18.8182 16.9648 20.2073 14.1846C21.5963 16.9648 23.8621 19.2306 26.6423 20.6197C23.8621 22.0087 21.5963 24.2745 20.2073 27.0547C18.8182 24.2745 16.5524 22.0087 13.7722 20.6197Z" fill="#CA9352"/></g>
        <g id="logotype" transform="translate(47, 9)"><path fill="#000000" d="M12.86 1.90L12.86 11.17L24.48 11.17L24.48 1.90L29.24 1.90L29.24 25L24.48 25L24.48 15.30L12.86 15.30L12.86 25L8.10 25L8.10 1.90L12.86 1.90ZM39.04 25.45L39.04 25.45Q36.80 25.45 35.37 24.70Q33.93 23.95 33.27 22.73Q32.60 21.50 32.60 20.03L32.60 20.03L32.60 19.50Q32.60 18.59 33.00 17.51Q33.41 16.42 34.53 15.57Q35.65 14.71 37.82 14.50L37.82 14.50L41.95 14.08Q43.56 13.90 44.06 13.71Q44.57 13.52 44.57 12.96L44.57 12.96Q44.57 11.77 43.66 11.38Q42.75 11.00 41.07 11.00L41.07 11.00Q40.06 11.00 39.23 11.16Q38.41 11.31 37.87 11.68Q37.33 12.05 37.15 12.75L37.15 12.75L32.78 11.70Q33.16 10.40 34.04 9.51Q34.91 8.62 36.12 8.06Q37.33 7.50 38.71 7.27Q40.09 7.04 41.46 7.04L41.46 7.04Q44.61 7.11 46.32 8.04Q48.04 8.97 48.68 10.58Q49.33 12.19 49.33 14.32L49.33 14.32L49.33 25L44.78 25L44.78 22.90Q44.40 23.53 43.56 24.11Q42.72 24.68 41.54 25.07Q40.37 25.45 39.04 25.45ZM39.99 21.50L39.99 21.50Q41.42 21.50 42.42 21.04Q43.42 20.59 43.98 19.98Q44.54 19.36 44.61 18.80L44.61 18.80Q44.71 18.35 44.76 17.79Q44.82 17.23 44.78 16.70L44.78 16.70Q44.54 16.95 43.87 17.05Q43.21 17.16 42.05 17.30L42.05 17.30L39.50 17.58Q38.41 17.72 37.94 18.17Q37.47 18.63 37.47 19.33L37.47 19.33L37.47 19.54Q37.47 20.10 37.68 20.55Q37.89 21.01 38.43 21.25Q38.97 21.50 39.99 21.50ZM66.06 7.57L64.45 11.70Q64.14 11.56 63.75 11.44Q63.37 11.31 62.77 11.31L62.77 11.31Q61.30 11.31 60.15 12.07Q58.99 12.82 58.33 14.15Q57.66 15.48 57.66 17.16L57.66 17.16L57.66 25.14L53.01 25.14L53.01 7.64L57.66 7.64L57.66 10.19Q58.33 9.49 59.11 8.79Q59.90 8.09 60.95 7.64Q62.00 7.18 63.51 7.18L63.51 7.18Q64.24 7.18 64.91 7.29Q65.57 7.39 66.06 7.57L66.06 7.57ZM67.00 7.50L71.70 7.50L71.70 25L67.00 25L67.00 7.50ZM69.39 5.08L69.39 5.08Q68.34 5.08 67.60 4.35Q66.87 3.61 66.87 2.56L66.87 2.56Q66.87 1.55 67.60 0.81Q68.34 0.08 69.39 0.08L69.39 0.08Q70.40 0.08 71.14 0.81Q71.87 1.55 71.87 2.56L71.87 2.56Q71.87 3.61 71.14 4.35Q70.40 5.08 69.39 5.08ZM85.83 20.91L86.43 24.72Q86.11 24.89 85.57 25.05Q85.03 25.21 84.45 25.32Q83.88 25.42 83.38 25.45L83.38 25.45Q79.95 25.59 78.20 23.90Q76.45 22.20 76.45 18.49L76.45 18.49L76.45 11.42L73.80 11.42L73.80 7.50L76.77 7.50L77.58 1.55L81.11 1.55L81.11 7.50L85.97 7.50L85.97 11.42L81.11 11.42L81.11 17.96Q81.11 20.13 81.88 20.85Q82.65 21.57 84.36 21.32L84.36 21.32Q84.85 21.29 85.24 21.13Q85.63 20.98 85.83 20.91L85.83 20.91Z"/></g>
        
      </svg>
    