<svg width="600" height="600" xmlns="http://www.w3.org/2000/svg">

 <g>
  <title>Layer 1</title>
  <g stroke="null" id="svg_2">
   <path stroke="null" d="m582.00007,322.30562l-99.94476,0c-87.30048,0 -158.07161,68.48949 -158.07161,152.97376l0,96.72066c137.78692,-9.88739 247.7994,-116.35099 258.01638,-249.69442z" fill="#2E8B57"/>
   <path stroke="null" d="m282.01652,572.00004l0,-96.72066c0,-84.48427 -70.77113,-152.97376 -158.07259,-152.97376l-99.94392,0c10.21642,133.34343 120.22904,239.80703 258.01652,249.69442z" fill="#2E8B57"/>
   <path stroke="null" d="m582.00007,281.69361c-10.21698,-133.34302 -120.22945,-239.80676 -258.01638,-249.69361l0,96.71985c0,84.48562 70.77113,152.97376 158.07161,152.97376l99.94476,0z" fill="#2E8B57"/>
   <path stroke="null" d="m282.01652,32c-137.78748,9.88685 -247.80009,116.35059 -258.01652,249.69361l99.94392,0c87.30146,0 158.07259,-68.48814 158.07259,-152.97376l0,-96.71985z" fill="#2E8B57"/>
   <path stroke="null" d="m213.23465,301.99624c38.78378,-18.75283 70.39169,-49.33975 89.76824,-86.87377c19.37794,37.53402 50.98585,68.12094 89.76963,86.87377c-38.78378,18.75148 -70.39169,49.33975 -89.76963,86.87242c-19.37655,-37.53267 -50.98445,-68.12094 -89.76824,-86.87242z" fill="#CD934D"/>
  </g>
 </g>
</svg>